<svg xmlns="http://www.w3.org/2000/svg" width="192" height="192" viewBox="0 0 32 32">
  <defs>
    <!-- Gradient for the background -->
    <radialGradient id="bgGrad" cx="50%" cy="50%" r="50%">
      <stop offset="0%" style="stop-color:#1e40af;stop-opacity:1" />
      <stop offset="70%" style="stop-color:#3730a3;stop-opacity:1" />
      <stop offset="100%" style="stop-color:#1e1b4b;stop-opacity:1" />
    </radialGradient>
    
    <!-- Gradient for the pulse line -->
    <linearGradient id="pulseGrad" x1="0%" y1="0%" x2="100%" y2="0%">
      <stop offset="0%" style="stop-color:#22d3ee;stop-opacity:0.3" />
      <stop offset="30%" style="stop-color:#06b6d4;stop-opacity:0.8" />
      <stop offset="50%" style="stop-color:#0891b2;stop-opacity:1" />
      <stop offset="70%" style="stop-color:#06b6d4;stop-opacity:0.8" />
      <stop offset="100%" style="stop-color:#22d3ee;stop-opacity:0.3" />
    </linearGradient>
    
    <!-- Glow filter for pulse effect -->
    <filter id="glow">
      <feGaussianBlur stdDeviation="1" result="coloredBlur"/>
      <feMerge> 
        <feMergeNode in="coloredBlur"/>
        <feMergeNode in="SourceGraphic"/>
      </feMerge>
    </filter>
  </defs>
  
  <!-- Background -->
  <rect width="32" height="32" rx="6" fill="url(#bgGrad)"/>
  
  <!-- Network mesh nodes -->
  <g fill="#22d3ee" opacity="0.6">
    <circle cx="8" cy="8" r="1.2"/>
    <circle cx="24" cy="8" r="1.2"/>
    <circle cx="8" cy="24" r="1.2"/>
    <circle cx="24" cy="24" r="1.2"/>
    <circle cx="16" cy="6" r="0.8"/>
    <circle cx="16" cy="26" r="0.8"/>
    <circle cx="6" cy="16" r="0.8"/>
    <circle cx="26" cy="16" r="0.8"/>
  </g>
  
  <!-- Connection lines -->
  <g stroke="#22d3ee" stroke-width="0.8" opacity="0.4" fill="none">
    <line x1="8" y1="8" x2="16" y2="6"/>
    <line x1="16" y1="6" x2="24" y2="8"/>
    <line x1="8" y1="8" x2="6" y2="16"/>
    <line x1="24" y1="8" x2="26" y2="16"/>
    <line x1="6" y1="16" x2="8" y2="24"/>
    <line x1="26" y1="16" x2="24" y2="24"/>
    <line x1="8" y1="24" x2="16" y2="26"/>
    <line x1="16" y1="26" x2="24" y2="24"/>
  </g>
  
  <!-- Central pulse heartbeat -->
  <g filter="url(#glow)">
    <!-- Pulse line with heartbeat pattern -->
    <path d="M6 16 L10 16 L12 12 L14 20 L16 8 L18 24 L20 14 L22 16 L26 16" 
          stroke="url(#pulseGrad)" 
          stroke-width="2.5" 
          fill="none" 
          stroke-linecap="round" 
          stroke-linejoin="round"/>
    
    <!-- Central pulse dot -->
    <circle cx="16" cy="16" r="2" fill="#06b6d4" opacity="0.8"/>
    <circle cx="16" cy="16" r="1" fill="#ffffff" opacity="0.9"/>
  </g>
  
  <!-- Subtle outer glow -->
  <rect width="32" height="32" rx="6" fill="none" stroke="url(#pulseGrad)" stroke-width="0.5" opacity="0.3"/>
</svg>